<svg id="Layer_1" data-name="Layer 1" xmlns="http://www.w3.org/2000/svg" viewBox="0 0 3437.1 1158.87"><defs><style>.cls-1,.cls-2{fill:#fff;}.cls-2{fill-rule:evenodd;}</style></defs><title>bb2</title><path class="cls-1" d="M952,1480.22q-14.7-15.79-18.5-35.65a229.81,229.81,0,0,1-3.81-43.27q0-76.74,62.59-219.88,27.76-63.13,55.52-113.75a1052,1052,0,0,1,55.51-90.89,23.33,23.33,0,0,0,6.53-16.33q0-9.8-9.8-15.24-19.59-7.62-15.24-16.87,1.63-3.27,16.06-4.9t40.55-1.63c1.45,0,1.63-.54.55-1.63s-1.28-2.18-.55-3.26a765.16,765.16,0,0,1,60.41-81.37q34.29-40.54,71.84-84.09,3.27-3.8,30.48-14.15,13.06-4.35,18.78-6.8a30.76,30.76,0,0,1,12.25-2.45q6,0,6,4.9c0,1.45-1.82,2.72-5.44,3.81Q1284.5,747.1,1166.4,909.29q-8.71,12.53,3.81,12.52h78.92q32.11,0,49.8.27t22,0.27q4.9,0,6.53,1.63c0,0.73-1,2.63-3,5.71a10.51,10.51,0,0,1-7.89,5.17q-31,1.1-71,3.54t-91.17,5.17q-9.26,1.63-13.61,8.71-28.85,42.45-54.43,84.36t-50.07,90.89q-37.55,77.84-59.33,141.24t-26.12,114q-0.55,7.07-.55,13.06v13.06q0,94.7,66.95,94.7,19,0,42.45-7.07,34.29-10.9,68-34.29t68.58-61q35.92-37.56,55.24-70.21t23.68-62q0-51.16-36.47-45.17a34.4,34.4,0,0,0-14.15,4.9q-6,3.8-8.71,3.81-5.45,0-4.35-4.9a24.33,24.33,0,0,1,7.89-7.62q5.17-3.27,19.32-9.25a28.75,28.75,0,0,1,6.53-.55q17.41,0,33.2,23.4,16.33,24.49,15.24,37-10.89,71.85-104,156.2-47.35,42.45-88.44,64.22t-77.56,21.77q-43.55,0-71.84-32.66m-58-545.9q10.06-15.78,19.87-31-22.86,6.53-38.91,16.6A119.46,119.46,0,0,0,848,942.49a14.12,14.12,0,0,0-4.35,10.34q0,9.26,12,10.88,7.62,1.1,12.25,1.63c3.08,0.37,5.17.54,6.26,0.54q9.8-15.78,19.87-31.57m16.33,33.74q10.06,0.55,21,.55a738.79,738.79,0,0,0,91.16-5.71q46-5.72,94.43-16.6a901.64,901.64,0,0,0,118.65-37A793.4,793.4,0,0,0,1346,855.95q113.2-65.85,113.21-138.24,0-47.35-45.72-78.37-45.72-32.65-106.67-32.66a197.68,197.68,0,0,0-77.29,15.78q-91.44,38.1-175.25,123.82T891,967q9.25,0.55,19.32,1.09m-79.74,103.41q-28.31,49.53-58.78,105a63.71,63.71,0,0,0,7.07-7.07q4.35-4.9,12-12.52,17.41-17.41,37-34.83t40.28-34.83q50.07-39.72,68-41.36,2.17-2.72,21.23-7.62,3.27-.54,8.16,3.54t4.9,8.44c0,1.45-.19,2.37-0.54,2.72a314.22,314.22,0,0,0-19.59,27.48q-10.35,16.06-21.77,36.19-26.67,48.45-26.67,68,0,14.16,14.69,14.15,26.66,0,87.08-45.72a16.86,16.86,0,0,1,3-1.63,5.8,5.8,0,0,0,1.91-1.09,1.61,1.61,0,0,1,.54,1.09l0.55,0.54-3.81,3.81q-70.76,57.7-102.32,57.69-9.8,0-20.14-9.8-12.53-9.8-9.8-22.31,10.33-43,58.24-106.13a11,11,0,0,0,2.18-7.08q0-7.62-8.16-7.62-4.9,0-10.89,3.81Q884.46,1080.73,830,1133q-45.72,44.08-70.21,73.48-1.1-2.17-6,4.35c-0.73,1.81-1.63,2.72-2.72,2.72q-4.36,0-4.36-8.71a14.08,14.08,0,0,1,.55-4.36q21.76-46.25,52-102t69.39-123.28c-1.82-.36-4.08-0.72-6.8-1.09s-5.71-.9-9-1.63q-7.63-1.63-13.61-9.8t-6-15.78a12,12,0,0,1,1.09-5.44,28.7,28.7,0,0,1,2.72-4.35q26.66-28.29,80-39.73,76.19-114.83,152.67-184.23t155.93-97.15q42.45-15.23,84.36-15.24,69.66,0,116.47,39.19,44.62,38.1,44.63,90.89,0,40.28-27.76,76.2-29.94,39.74-89.8,67.49-218.8,102.87-431.06,102.87-9.26,0-18.5-.27t-18-.82q-27.22,45.72-55.52,95.25m-106.68,9.8a0.49,0.49,0,0,0-.54-0.55v-0.54a3.15,3.15,0,0,1,.54-2.18q0-9.8-3.81-10.34-6-2.17-25,2.72-39.74,9.26-78.92,39.19-41.37,32.66-52.79,66.4c-0.37,1.82-.64,3.27-0.82,4.35a27,27,0,0,0-.27,4.35q0,17.43,13.06,17.42,11.43,0,66.94-39.73,22.31-15.78,38.92-28.57t27.48-22.59q13.6-10.33,15.24-29.93M113.25,1557.51q0,57.68,57.15,101.78,60.41,46.26,136.07,43,131.72-4.9,250.36-197a1199.78,1199.78,0,0,0,66.67-124.64,1263,1263,0,0,0,54.15-138.79q-196.48,41.36-344,108.31-178,82.72-213.9,172.53a98.58,98.58,0,0,0-6.53,34.83m631.89-502.36A16.16,16.16,0,0,1,753,1060a11.86,11.86,0,0,1,3.54,8.16,30.21,30.21,0,0,1-6,13.06q-8.71,26.13-21,63.13t-29.12,86q83.27-14.7,157.29-14.7,13.6,0,23.68.82t17.69,1.9a36,36,0,0,1,12.25,4.9,51.62,51.62,0,0,1,11.43,9.52,54.8,54.8,0,0,1,8.44,12.25,30.05,30.05,0,0,1,3.26,13.61,26.44,26.44,0,0,1-2.72,12q-7.08,13.6-35.38,35.92-4.9,4.35-8.16,4.35c-0.73,0-1.09-.19-1.09-0.54q0-3.26,5.44-7.07,32.11-29.94,32.11-53.88,0-19.59-26.67-21.77-7.63-.55-17.69-0.82t-22.59-.27q-49.53,0-89.53,3t-71.57,10.07q-160.56,457.72-389.15,472.42-78.38,4.35-143.69-47.35Q98,1613,98,1548.8q0-20.14,8.71-40.82,41.37-97.43,260.7-184,149.13-59.33,312.41-90.35,12.51-28.31,29.39-88.72,2.72-9.25,4.63-17.14t4.08-14.42a291.68,291.68,0,0,1-25.85,21Q675.46,1146.59,651,1164q-31,21.78-53.88,35.65t-38.64,21a29.51,29.51,0,0,1-10.34,1.63q-19.59,0-19.59-19.59,0-7.61,4.9-16.87,25.58-52.25,89.26-92.52,63.68-39.72,119.19-39.19a4.47,4.47,0,0,1,3.27,1.09M526.89,992.56q-12,11.43-20.14,9.8-12-2.17-12-9.25,0-7.62,12.52-20.14,12.51-13.06,20.14-14.7,6-1.08,11.16,3.54t3.54,9.52q-1.63,9.26-15.24,21.23m29.66,163.82q-13.34,10.35-29.39,21.5t-32.38,21a290.79,290.79,0,0,1-28.3,15.24q-3.27,1.08-10.07,0a38.19,38.19,0,0,1-13.61-5.17,42.23,42.23,0,0,1-12-10.88q-5.18-6.8-5.17-16.6,0-8.7,4.35-22.59t10.88-29.39q6.53-15.51,14.15-31.57t14.15-29.39q6.53-13.33,10.88-22.86t4.9-11.7q1.08-6.53,6.53-9a13.85,13.85,0,0,1,10.34-.82q4.9,1.63,7.07,7.62t-2.72,15.78q-18.51,34.84-28.57,53.61t-14.42,27.48q-4.36,8.71-5.17,10.61c-0.55,1.27-1,2.45-1.36,3.54s-1.18,3.09-2.45,6-4.08,8.89-8.44,18-6.62,16.06-6.8,21,1,8.44,3.54,10.61a13.07,13.07,0,0,0,9.52,3,74.06,74.06,0,0,0,11.16-1.36q10.33-2.17,25.85-10.34t31.84-18.5q16.33-10.33,30.48-20.68A250.14,250.14,0,0,0,573.15,1133q4.9-4.9,7.08-5.44c1.44-.36,2.26,0,2.45,1.09s-0.27,2.72-1.36,4.9a18.75,18.75,0,0,1-4.9,6,221.14,221.14,0,0,1-19.87,16.87m391.6-430.24a134.54,134.54,0,0,0,3.27-17.69q6-57.68-48.44-101.78-54.43-45.72-132.26-43-131.72,6-267.24,197a1177.79,1177.79,0,0,0-76.2,120,1471.31,1471.31,0,0,0-64.77,132.53h0.54l-2.18,5.44a38.2,38.2,0,0,1-2.72,5.44q99.6-20.68,187.77-47.35a1458.69,1458.69,0,0,0,166-61q185-81.09,230.22-172.53a114.19,114.19,0,0,0,6-17.14m-630.8,363a401.2,401.2,0,0,1,21.23-62.32v-1.63Q539.94,568.58,770.72,553.88q79.46-4.35,139.33,47.35Q971,652.4,965.57,717.7a129.35,129.35,0,0,1-12,40.28q-51.71,98.52-278.12,184-77.84,29.94-157.57,52.25t-162.46,38.1a436.47,436.47,0,0,0-15.51,53.61q-6.26,28-6.8,50.35-1.1,25.59,7.35,37t21.23,13.06q12.78,1.63,27.76-4.63a125.25,125.25,0,0,0,40.82-27.21q5.72-5.71,11.7-12.25,4.35-4.35,6.26-3.54t-2.45,6.8q-4.36,5.45-11.16,12.52t-12.79,12.52q-19.06,16.88-38.64,25t-35.38,6a39.47,39.47,0,0,1-26.12-15q-10.34-12.78-10.88-38.37a211,211,0,0,1,6.53-59.05" transform="translate(-98.01 -553.54)"/><path class="cls-1" d="M3359.14,1282.69q28.55,15.31,69.4,15.31,47.54,0,77.05-25.68t29.51-67.16q0-32.22-18.66-51.85t-66.21-34.94q-6.39-1.91-17.23-5.43-58.07-18.19-58.07-45,0-19.14,13.88-31.43t35.9-12.28q23,0,40.36,10.85T3491.4,1066l40.52-24.89q-11.81-27.76-38.93-42.91t-65.09-15.16q-45.95,0-74.66,24.57t-28.72,63.49q0,55.2,106.57,91.89l8.3,2.87q25.2,8.61,35.58,18.82t10.37,25.53q0,19.79-15.16,31.91t-39.72,12.12q-25.21,0-43.71-11.65t-30.63-34.94l-42.76,28.72q17.23,31,45.79,46.26m-90-145.5q0-71.79-37.81-113.27t-102.58-41.48q-64.13,0-105,43.71t-40.84,112.31q0,71.47,41.16,115.5t107.84,44q45,0,79.13-20.1t56.16-59.66l-38-25.53q-18.19,31.91-41.8,47.7a93.15,93.15,0,0,1-53,15.79q-43.07,0-69.87-28.87t-26.8-75.78v-4.47h231.32v-9.89Zm-231.32-30.63q3.83-36.69,28.08-58.55t60.62-21.86q40.2,0,63.33,20.9t25.69,59.51H3037.78Zm-300.77,179V1131.46l150.6,154.11h69.88l-158.89-158.26,145.81-133.69h-66.68L2737,1126V791h-50.09v494.55H2737ZM2536.54,993.62v54.88q-16.59-32.54-43.55-49t-63.65-16.43q-62.54,0-99.87,42.6t-37.33,114.7q0,71.15,38.45,114.39t101.3,43.23q33.82,0,61.1-16.75t44.83-48.66v53h48.5V993.62h-49.77Zm-24.09,226.7q-25.36,27.93-70,27.92-46.59,0-71.95-28.72t-25.37-81.68q0-49.78,25.21-77.53t70.2-27.76q43.39,0,70.35,30.15t27,79.61q0,50.1-25.37,78m-462.8-353.68q62.85,0,85.35,18t22.49,63q0,40.85-24.25,58.07t-83.6,17.23h-43.07V866.63h43.07Zm0,200.05h16.27q30.94,0,45.63,2.87a79.5,79.5,0,0,1,25.84,9.57,70.73,70.73,0,0,1,28.72,29.35q9.89,18.83,9.89,44.35a95.76,95.76,0,0,1-8.29,40.2q-8.3,18.19-22.65,28.4-11.81,8.61-31.43,12.12t-64,3.51h-43.07V1066.68h43.07Zm0,218.88q68.6,0,97.63-8t48.82-27.44a128.46,128.46,0,0,0,28.4-43.71,143,143,0,0,0,10.21-53.6q0-46.9-24.09-77.69T2145.05,1038q33.82-9.89,51.53-34.78t17.71-61.9q0-30.95-12.28-57a111.45,111.45,0,0,0-34.62-42.59q-17.55-12.76-42-18t-75.78-5.27h-97.32v467.11h97.32Z" transform="translate(-98.01 -553.54)"/><path class="cls-2" d="M1748.86,1485.81q3.71-2.4,7.32-5.06a141.5,141.5,0,0,0,57.52-117.91h0c0.59-72.28-37.85-183.62-64.85-289.12v93.92c22.19,68.87,42.46,146.53,42.06,195-0.31,38.1-13.08,70.69-42.06,94.89v28.26Zm-76.38,68.09a30.14,30.14,0,0,0,24.52-47.67,140.81,140.81,0,0,0,51.86-20.42v-28.26q-3,2.49-6.21,4.87a119.21,119.21,0,0,1-23.88,13.68c18.75-143.38,12.06-284.8-12-424.88,11,26.75,27,69.55,42.06,116.42v-93.92c-8.77-34.29-16.34-68-21-99.48l-55.41-.78v84.23q1.95-14.15,4-28.3c20.35,147.77,29.77,297.95,19.19,452.55a125.29,125.29,0,0,1-23.15,1.82v29.14a10.85,10.85,0,0,1,0,21.7v19.29Zm-22.21-9.77a30.12,30.12,0,0,0,22.21,9.77v-19.29a10.85,10.85,0,0,1,0-21.7v-29.14a126.14,126.14,0,0,1-22.21-2.31v62.67Zm22.21-570.68-22.21-.31v85.2c1.56-3.33,3-6.47,4.46-9.41q-2.29,9.83-4.46,19.68v193.61c4.76-68.77,12.88-136.78,22.21-204.52V973.47Zm-69,517.26a141.89,141.89,0,0,0,44.41,15.6,30.15,30.15,0,0,0,.34,35.32,30.59,30.59,0,0,0,2,2.48v-62.67l-1.38-.28c-4.89-74.19-3.6-147,1.38-219V1068.61c-29.14,132.08-42.29,266.35-32.51,403.76a118.82,118.82,0,0,1-14.29-8.44v26.8Zm46.8-517.58v85.2c-12.86,27.47-30.24,67.47-46.8,110.59v-84.34c10.77-37,20.34-74.25,26.77-111.74ZM1533.79,1336a143,143,0,0,0-2.82,18.27l0,0.19h0a141.77,141.77,0,0,0,72.52,136.27v-26.8q-4.48-3.08-8.74-6.63c-31.86-26.54-44.38-61.77-42.3-102.43,2.38-46.92,25.75-120.07,51-185.93v-84.34c-24.66,84.76-55.61,168.39-69.68,251.39" transform="translate(-98.01 -553.54)"/><path class="cls-2" d="M1669.7,942.05l69.79,0.41c0.29-32.19-8.5-60.12-30.48-81.87,5.55-75.43,18.82-150.57,16.65-226.3,3.72-49-26.88-73.44-56-72.28v35.8a20.8,20.8,0,0,1,0,41.6V942.05ZM1620.87,620.2c2.49,79,17.06,159.8,26.57,239.84-18.56,23-27.22,50.79-26.83,81.73l49.09,0.29V639.41a20.8,20.8,0,0,1,0-41.6V562c-24.49,1-47.9,20.14-48.83,58.18" transform="translate(-98.01 -553.54)"/></svg>